<svg xmlns="http://www.w3.org/2000/svg" xmlns:xlink="http://www.w3.org/1999/xlink" width="480" height="480" version="1.1" viewBox="0 0 224 224"><g fill="none" fill-rule="nonzero" stroke="none" stroke-dashoffset="0" stroke-linecap="butt" stroke-linejoin="miter" stroke-miterlimit="10" stroke-width="1" font-family="none" font-size="none" font-weight="none" text-anchor="none" style="mix-blend-mode:normal"><path fill="none" d="M0,224v-224h224v224z"/><path fill="#3498db" d="M0,112c0,-61.85589 50.14411,-112 112,-112c61.85589,0 112,50.14411 112,112c0,61.85589 -50.14411,112 -112,112c-61.85589,0 -112,-50.14411 -112,-112zM112,206.08c51.95895,0 94.08,-42.12105 94.08,-94.08c0,-51.95895 -42.12105,-94.08 -94.08,-94.08c-51.95895,0 -94.08,42.12105 -94.08,94.08c0,51.95895 42.12105,94.08 94.08,94.08z"/><g id="Layer_1"><path fill="#3498db" d="M186.66667,112c0,41.23467 -33.432,74.66667 -74.66667,74.66667c-41.23467,0 -74.66667,-33.432 -74.66667,-74.66667c0,-41.23467 33.432,-74.66667 74.66667,-74.66667c41.23467,0 74.66667,33.432 74.66667,74.66667z"/><path fill="#a4d9fa" d="M112,63.46667l14.55253,29.48587l32.4912,4.85707l-23.52373,22.7808l5.6,32.47627l-29.12,-15.31413l-29.12373,15.31413l5.6,-32.47627l-23.52373,-22.7808l32.4912,-4.85707z"/></g><path fill="none" d="M112,224c-61.85589,0 -112,-50.14411 -112,-112v0c0,-61.85589 50.14411,-112 112,-112v0c61.85589,0 112,50.14411 112,112v0c0,61.85589 -50.14411,112 -112,112z"/><path fill="none" d="M112,206.08c-51.95895,0 -94.08,-42.12105 -94.08,-94.08v0c0,-51.95895 42.12105,-94.08 94.08,-94.08h0c51.95895,0 94.08,42.12105 94.08,94.08v0c0,51.95895 -42.12105,94.08 -94.08,94.08z"/><path fill="none" d="M112,224c-61.85589,0 -112,-50.14411 -112,-112v0c0,-61.85589 50.14411,-112 112,-112v0c61.85589,0 112,50.14411 112,112v0c0,61.85589 -50.14411,112 -112,112z"/><path fill="none" d="M112,206.08c-51.95895,0 -94.08,-42.12105 -94.08,-94.08v0c0,-51.95895 42.12105,-94.08 94.08,-94.08h0c51.95895,0 94.08,42.12105 94.08,94.08v0c0,51.95895 -42.12105,94.08 -94.08,94.08z"/><path fill="none" d="M112,224c-61.85589,0 -112,-50.14411 -112,-112v0c0,-61.85589 50.14411,-112 112,-112v0c61.85589,0 112,50.14411 112,112v0c0,61.85589 -50.14411,112 -112,112z"/><path fill="none" d="M112,206.08c-51.95895,0 -94.08,-42.12105 -94.08,-94.08v0c0,-51.95895 42.12105,-94.08 94.08,-94.08h0c51.95895,0 94.08,42.12105 94.08,94.08v0c0,51.95895 -42.12105,94.08 -94.08,94.08z"/></g></svg>