<svg xmlns="http://www.w3.org/2000/svg" xmlns:xlink="http://www.w3.org/1999/xlink" id="Layer_1" x="0" y="0" version="1.1" viewBox="0 0 512 512" xml:space="preserve" style="enable-background:new 0 0 512 512"><rect style="fill:#c8414b" width="508.03" height="512" x="1.985"/><rect style="fill:#ffd250" width="508.03" height="296.42" x="1.985" y="107.79"/><path style="fill:#c8414b" d="M223.347,256.409l8.191-33.404c0.754-3.076-1.829-5.994-5.306-5.994h-5.77	c-3.477,0-6.061,2.918-5.306,5.994L223.347,256.409z"/><rect style="fill:#f5f5f5" width="19.322" height="74.42" x="213.681" y="238.89"/><rect style="fill:#fab446" width="28.984" height="8.756" x="208.861" y="230.14"/><g><rect style="fill:#c8414b" width="48.3" height="8.756" x="189.531" y="256.41"/><polygon style="fill:#c8414b" points="237.839 291.429 208.856 282.674 208.856 273.919 237.839 282.674"/><path style="fill:#c8414b" d="M78.435,256.409l8.191-33.404c0.754-3.076-1.829-5.994-5.306-5.994h-5.77 c-3.477,0-6.061,2.918-5.306,5.994L78.435,256.409z"/></g><path style="fill:#f5f5f5" d="M112.248,230.143c-5.335,0-9.661,3.919-9.661,8.756v56.908c0,10.638,10.955,30.643,48.305,30.643	s48.305-20.006,48.305-30.643v-56.908c0-4.835-4.325-8.756-9.661-8.756H112.248L112.248,230.143z"/><g><path style="fill:#c8414b" d="M150.891,273.919h-48.305V239.34c0-5.079,4.118-9.197,9.197-9.197h39.107v43.776H150.891z"/><path style="fill:#c8414b" d="M150.891,273.919h48.305v20.784c0,12.698-10.294,22.992-22.992,22.992h-2.32 c-12.698,0-22.992-10.294-22.992-22.992L150.891,273.919L150.891,273.919z"/></g><path style="fill:#fab446" d="M102.587,273.919h48.305v20.784c0,12.698-10.294,22.992-22.992,22.992h-2.32	c-12.698,0-22.992-10.294-22.992-22.992C102.587,294.703,102.587,273.919,102.587,273.919z"/><g><path style="fill:#c8414b" d="M141.231,313.218v-39.299h-9.661v43.334C135.162,316.592,138.41,315.15,141.231,313.218z"/><path style="fill:#c8414b" d="M121.909,317.253v-43.334h-9.661v39.299C115.069,315.15,118.316,316.592,121.909,317.253z"/></g><rect style="fill:#ffb441" width="28.984" height="8.756" x="112.241" y="256.41"/><g><rect style="fill:#fab446" width="28.984" height="8.756" x="112.241" y="238.89"/><rect style="fill:#fab446" width="19.322" height="15.861" x="117.081" y="244.1"/></g><rect style="fill:#f5f5f5" width="19.322" height="74.42" x="68.774" y="238.89"/><g><rect style="fill:#fab446" width="28.984" height="8.756" x="63.941" y="308.94"/><rect style="fill:#fab446" width="28.984" height="8.756" x="63.941" y="230.14"/></g><rect style="fill:#5064aa" width="38.643" height="8.756" x="59.111" y="317.7"/><rect style="fill:#fab446" width="28.984" height="8.756" x="213.681" y="308.94"/><rect style="fill:#5064aa" width="38.643" height="8.756" x="204.031" y="317.7"/><rect style="fill:#fab446" width="57.967" height="8.756" x="121.911" y="221.39"/><rect style="fill:#ffb441" width="9.661" height="26.27" x="146.061" y="195.13"/><g><path style="fill:#f5f5f5" d="M141.231,208.255c-7.991,0-14.491-5.891-14.491-13.132s6.5-13.132,14.491-13.132 s14.491,5.891,14.491,13.132C155.721,202.364,149.221,208.255,141.231,208.255z M141.231,190.745c-2.665,0-4.83,1.963-4.83,4.378 c0,2.415,2.165,4.378,4.83,4.378c2.665,0,4.83-1.963,4.83-4.378C146.061,192.707,143.896,190.745,141.231,190.745z"/><path style="fill:#f5f5f5" d="M160.552,208.255c-7.991,0-14.491-5.891-14.491-13.132s6.5-13.132,14.491-13.132 s14.491,5.891,14.491,13.132C175.042,202.364,168.543,208.255,160.552,208.255z M160.552,190.745c-2.665,0-4.83,1.963-4.83,4.378 c0,2.415,2.165,4.378,4.83,4.378c2.665,0,4.83-1.963,4.83-4.378C165.382,192.707,163.217,190.745,160.552,190.745z"/><path style="fill:#f5f5f5" d="M179.874,217.011c-7.991,0-14.491-5.891-14.491-13.132s6.5-13.132,14.491-13.132 s14.491,5.891,14.491,13.132S187.864,217.011,179.874,217.011z M179.874,199.5c-2.665,0-4.83,1.963-4.83,4.378 c0,2.415,2.165,4.378,4.83,4.378c2.665,0,4.83-1.963,4.83-4.378C184.704,201.462,182.539,199.5,179.874,199.5z"/><path style="fill:#f5f5f5" d="M121.909,217.011c-7.991,0-14.491-5.891-14.491-13.132s6.5-13.132,14.491-13.132 s14.491,5.891,14.491,13.132C136.399,211.12,129.899,217.011,121.909,217.011z M121.909,199.5c-2.665,0-4.83,1.963-4.83,4.378 c0,2.415,2.165,4.378,4.83,4.378s4.83-1.963,4.83-4.378C126.739,201.462,124.574,199.5,121.909,199.5z"/></g><path style="fill:#fab446" d="M179.874,291.429v4.378c0,2.414-2.167,4.378-4.83,4.378s-4.83-1.964-4.83-4.378v-4.378H179.874 M189.534,282.674h-28.983v13.132c0,7.241,6.501,13.132,14.491,13.132c7.991,0,14.491-5.891,14.491-13.132L189.534,282.674	L189.534,282.674z"/><path style="fill:#ffa0d2" d="M175.507,265.163h-0.928c-5.079,0-9.197-4.118-9.197-9.197v-7.872c0-5.079,4.118-9.197,9.197-9.197	h0.928c5.079,0,9.197,4.118,9.197,9.197v7.872C184.704,261.047,180.586,265.163,175.507,265.163z"/><ellipse style="fill:#5064aa" cx="150.891" cy="273.92" rx="14.491" ry="13.13"/><rect style="fill:#fab446" width="9.661" height="26.27" x="146.061" y="177.61"/><path style="fill:#c8414b" d="M121.909,221.388l-9.661-8.756l5.659-5.129c8.748-7.928,20.613-12.381,32.984-12.381l0,0	c12.371,0,24.237,4.454,32.984,12.381l5.659,5.129l-9.661,8.756H121.909z"/><g><ellipse style="fill:#ffd250" cx="150.891" cy="212.63" rx="4.83" ry="4.378"/><ellipse style="fill:#ffd250" cx="131.571" cy="212.63" rx="4.83" ry="4.378"/><ellipse style="fill:#ffd250" cx="170.211" cy="212.63" rx="4.83" ry="4.378"/></g><g><rect style="fill:#c8414b" width="48.3" height="8.756" x="63.941" y="256.41"/><polygon style="fill:#c8414b" points="63.943 291.429 92.926 282.674 92.926 273.919 63.943 282.674"/></g></svg>